<?xml version="1.0" encoding="UTF-8" standalone="no"?><!DOCTYPE svg PUBLIC "-//W3C//DTD SVG 1.1//EN" "http://www.w3.org/Graphics/SVG/1.1/DTD/svg11.dtd"><svg width="100%" height="100%" viewBox="0 0 3829 2247" version="1.1" xmlns="http://www.w3.org/2000/svg" xmlns:xlink="http://www.w3.org/1999/xlink" xml:space="preserve" xmlns:serif="http://www.serif.com/" style="fill-rule:evenodd;clip-rule:evenodd;stroke-linejoin:round;stroke-miterlimit:1.5;"><rect id="Artboard2" x="0" y="0" width="3829" height="2246.13" style="fill:none;"/><clipPath id="_clip1"><rect x="0" y="0" width="3829" height="2246.13"/></clipPath><g clip-path="url(#_clip1)"><g id="Artboard1"><rect x="0" y="438.476" width="3828.99" height="1806.85" style="fill:none;"/><g><path d="M495.706,1373.26c-8.145,-7.347 -20.161,-11.233 -34.316,-11.233c-52.764,0 -95.231,39.314 -95.231,81.221c0,25.489 20.594,40.607 46.759,40.607c42.895,0 95.659,-40.176 95.659,-81.221l0,-357.713l-12.871,0l0,328.339Z" style="fill-rule:nonzero;"/><path id="Notre" d="M2322.59,1137.33l156.13,84.459l259.267,139.901l259.151,139.674l97.25,52.38l58.482,31.464l127.747,67.61l0.062,-0.713l35.475,19.096l0,-0.343l146.753,-66.191l225.936,-109.344l2.443,-1.23l0.031,-0.02l13.745,-2.745l13.37,2.667l11.428,7.48l7.953,11.616l0.031,0.052l0,0.052l2.787,13.793l-2.599,13.41l-7.42,11.449l-11.523,7.926l-0.062,0.026l-2.787,0.971l-251.517,92.3l-142.244,55.877l-2.661,0.79l-2.756,0.382l-2.755,-0.026l-2.724,-0.434l-2.599,-0.823l-2.411,-1.191l-20.101,-11.222l-126.902,-69.552l-58.356,-31.458l-97.041,-52.263l-258.637,-139.208l-258.822,-139.144l-155.952,-83.623l-166.96,-87.929l-50.958,-26.737l0,0.375l-166.403,90.138l-213.174,128.452l-89.89,52.03l-70.934,39.824l-32.904,17.574l-39.818,20.709l-52.132,26.516l-4.947,2.014l-5.178,1.179l-5.276,0.337l-5.238,-0.518l-5.101,-1.224l0.041,-0.123l-4.756,-2.131l-4.331,-2.855l-3.187,-2.934l-0.604,-0.57l-162.853,-174.745l-22.825,-30.208l-121.266,-159.541l-24.365,-28.628l-55.62,-64.76l-37.426,-43.023l-26.792,-30.033l-0.044,0.777l-7.104,6.547l-0.004,0.117l-57.689,52.004l0.745,3.283l-82.92,83.973l-7.627,6.993l0.038,0.033l-127.584,185.196l2.16,1.878l-12.396,11.708l-193.549,182.263l-9.058,8.528l-0.041,0.039l-12.054,7.259l-13.533,2.033l-13.316,-3.16l-11.403,-8.243l-0.076,-0.084l-7.264,-12.058l-2.035,-13.533l3.163,-13.314l8.247,-11.403l0.04,-0.039l9.008,-8.081l193.03,-173.191l12.433,-11.125l127.926,-180.761l2.148,-2.681l2.445,-2.402l6.91,-6.093l119.44,-98.232l58.188,-49.194l2.592,-1.742l2.803,-1.308l2.943,-0.842l0.811,-0.103l2.198,-0.311l3.012,0.052l2.952,0.518l2.818,0.971l2.615,1.386l2.351,1.774l2.035,2.104l9.487,11.041l47.38,52.982l71.632,79.304l31.936,35.11l127.165,153.176l24.075,28.828l138.508,132.461l0.106,-0.525l14.338,14.434l0.125,-0.816l73.382,-41.468l38.838,-21.9l32.218,-17.704l70.058,-36.547l89.379,-45.075l213.206,-107.207l148.033,-75.898l3.121,-1.244l3.266,-0.706l3.319,-0.161l3.284,0.382l3.156,0.906l2.947,1.405l33.934,18.986l166.478,91.666Z"/><path d="M496.487,1045.79l919.432,507.686l382.34,-865.298l923.28,339.165l533.412,1133.18l442.418,-405.369" style="fill:none;stroke:#000;stroke-width:13.91px;"/><path d="M578.286,1089.54l0,219.448" style="fill:none;stroke:#000;stroke-width:11.11px;"/><path d="M795.837,1048.51l0,167.673" style="fill:none;stroke:#000;stroke-width:11.13px;"/><path d="M821.114,1017.2l0,210.854" style="fill:none;stroke:#000;stroke-width:11.09px;"/><path d="M859.793,977.629l0,272.03" style="fill:none;stroke:#000;stroke-width:11.12px;"/><path d="M980.435,914.652l0,399.191" style="fill:none;stroke:#000;stroke-width:11.59px;"/><path d="M1174.88,1128.56l0,297.855" style="fill:none;stroke:#000;stroke-width:11.13px;"/><path d="M1007.22,934.482l0,397.355" style="fill:none;stroke:#000;stroke-width:11.12px;"/><path d="M1033.89,948.549l0,397.139" style="fill:none;stroke:#000;stroke-width:11.11px;"/><path d="M1308.92,1265.61l0,230.355" style="fill:none;stroke:#000;stroke-width:11.13px;"/><path d="M1584.59,1169.97l0,173.724" style="fill:none;stroke:#000;stroke-width:11.09px;"/><path d="M1732.18,835.632l0,419.026" style="fill:none;stroke:#000;stroke-width:11.09px;"/><path d="M1757.6,780.08l0,444.618" style="fill:none;stroke:#000;stroke-width:11.09px;"/><path d="M1782.66,729.4l0,493.61" style="fill:none;stroke:#000;stroke-width:11.15px;"/><path d="M1803.06,690.908l0,514.333" style="fill:none;stroke:#000;stroke-width:11.07px;"/><path d="M2114,802.391l0,236.245" style="fill:none;stroke:#000;stroke-width:11.12px;"/><path d="M1982.47,755.608l0,364.43" style="fill:none;stroke:#000;stroke-width:10.39px;"/><path d="M2463.3,933.553l0,301.079" style="fill:none;stroke:#000;stroke-width:11.12px;"/><path d="M2719.94,1018.6l0,358.812" style="fill:none;stroke:#000;stroke-width:11.14px;"/><path d="M2413.85,909.717l0,301.078" style="fill:none;stroke:#000;stroke-width:11.12px;"/><path d="M2375.74,896.576l0,301.078" style="fill:none;stroke:#000;stroke-width:11.12px;"/><path d="M2357.78,892.06l0,301.078" style="fill:none;stroke:#000;stroke-width:11.12px;"/><path d="M2829.58,1258.29l0,190.628" style="fill:none;stroke:#000;stroke-width:11.12px;"/><path d="M3069.55,1573.36l0,187.737" style="fill:none;stroke:#000;stroke-width:11.11px;"/><path d="M3256.48,1655.04l0,495.404" style="fill:none;stroke:#000;stroke-width:11.09px;"/><path d="M3304.51,1692.31l0,425.824" style="fill:none;stroke:#000;stroke-width:11.09px;"/><path d="M3335.82,1696.97l0,389.81" style="fill:none;stroke:#000;stroke-width:11.08px;"/><path d="M3462.31,1631.69l0,341.142" style="fill:none;stroke:#000;stroke-width:11.99px;"/><path d="M3552.36,1583.55l0,309.268" style="fill:none;stroke:#000;stroke-width:11.13px;"/><path d="M3508.59,1591.77l0,338.64" style="fill:none;stroke:#000;stroke-width:11.12px;"/><path d="M3696.24,1547.39l0,210.854" style="fill:none;stroke:#000;stroke-width:11.09px;"/><path d="M614.416,1110.23l0,159.186" style="fill:none;stroke:#000;stroke-width:11.12px;"/><g><path d="M111.52,973.242c-65.883,0 -95.417,48.088 -95.417,84.433c0,30.294 15.906,56.417 46.572,56.417c23.856,0 40.134,-16.661 40.134,-40.134c0,-24.233 -17.795,-39.378 -36.345,-39.378c-10.222,0 -14.011,2.65 -18.933,2.65c-4.922,0 -6.056,-3.027 -6.056,-6.816c0,-15.145 22.717,-42.784 61.334,-42.784c40.139,0 64.149,104.34 64.149,104.34c0,0 17.098,45.046 12.583,66.772c-8.099,38.972 31.638,88.112 31.638,88.112l5.177,-8.972l-8.516,-65.914l-16.116,-93.273c0,0 -14.704,-105.453 -80.204,-105.453Zm143.122,151.083c-11.739,0 -20.444,8.711 -20.444,20.45c0,11.733 8.705,20.444 20.444,20.444c11.739,0 20.445,-8.711 20.445,-20.444c0,-11.739 -8.706,-20.45 -20.445,-20.45Zm-0.378,-95.033c-11.738,0 -20.827,9.083 -20.827,20.822c0,11.739 9.089,20.828 20.827,20.828c11.734,0 20.823,-9.089 20.823,-20.828c0,-11.739 -9.089,-20.822 -20.823,-20.822Z" style="fill-rule:nonzero;"/><path d="M235.992,1350.53c-0.755,-4.545 -0.378,-5.678 4.167,-5.3c30.667,2.65 56.039,28.394 56.039,61.716c0,23.856 -14.389,43.162 -35.595,53.767c-4.544,2.272 -5.3,2.272 -6.055,-2.272l-18.556,-107.911Zm-26.122,-60.2c1.133,7.194 1.133,6.811 -5.683,9.083c-33.317,11.361 -54.9,41.272 -54.9,73.456c0,34.077 17.794,58.311 43.544,67.016c3.028,1.139 7.572,2.273 10.222,2.273c3.028,0 4.545,-1.895 4.545,-4.167c0,-2.65 -3.028,-3.783 -5.678,-4.922c-15.906,-6.811 -27.267,-23.095 -27.267,-40.511c0,-21.584 14.767,-37.862 37.867,-44.3c6.056,-1.512 6.817,-1.134 7.572,3.027l18.934,112.834c0.755,4.166 0.377,4.166 -5.306,5.3c-6.056,1.139 -13.628,1.894 -21.2,1.894c-66.261,0 -109.045,-36.728 -109.045,-89.355c0,-22.339 3.784,-52.25 35.212,-87.845c22.716,-25.367 40.133,-39.378 57.927,-53.767c3.789,-3.027 4.545,-2.65 5.306,1.517l7.95,48.467Zm5.678,-57.934c-0.756,-4.544 -31.372,-77.05 -29.1,-79.322c6.055,-5.678 -51.167,70.995 -70.856,95.228c-26.128,32.561 -42.411,67.772 -42.411,108.283c0,65.884 45.061,128.356 137.822,128.356c8.711,0 18.556,-0.756 26.128,-2.267c4.161,-0.761 4.922,-1.139 5.678,3.406c4.544,25.367 10.222,58.306 10.222,76.106c0,56.033 -37.861,62.85 -60.2,62.85c-20.444,0 -30.289,-6.056 -30.289,-10.978c0,-2.65 3.406,-3.789 12.111,-6.439c11.739,-3.406 25.373,-13.628 25.373,-35.589c0,-20.828 -13.256,-38.622 -36.35,-38.622c-25.367,0 -40.512,20.066 -40.512,43.544c0,24.611 14.767,61.717 71.939,61.717c25.367,0 74.589,-11.361 74.589,-75.728c0,-21.583 -6.816,-57.55 -10.983,-81.028c-0.756,-4.544 -0.378,-4.161 4.922,-6.433c38.245,-15.15 63.611,-47.333 63.611,-90.117c0,-48.461 -35.589,-91.25 -91.25,-91.25c-9.844,0 -9.844,0 -10.978,-6.817l-9.466,-54.9Z" style="fill-rule:nonzero;"/></g></g><path d="M242.123,1063.87l3462.19,0" style="fill:none;"/><g><path d="M-1.481,1490.1l3821.33,0" style="fill:none;stroke:#000;stroke-width:4.5px;stroke-linecap:round;"/><path d="M-1.481,1229.07l3821.33,0" style="fill:none;stroke:#000;stroke-width:4.5px;stroke-linecap:round;"/><path d="M-1.481,1098.56l3821.33,0" style="fill:none;stroke:#000;stroke-width:4.5px;stroke-linecap:round;"/><path d="M-1.481,968.045l3821.33,0" style="fill:none;stroke:#000;stroke-width:4.5px;stroke-linecap:round;"/><path d="M-1.481,1359.59l3821.33,0" style="fill:none;stroke:#000;stroke-width:4.5px;stroke-linecap:round;"/></g><g><path d="M523.224,657.19l3216.41,0" style="fill:none;stroke:#000;stroke-width:8px;stroke-dasharray:8,8,8,0;"/><path d="M3739.8,658.481l0,64.896" style="fill:none;stroke:#000;stroke-width:8px;stroke-dasharray:8,8,8,0;"/></g><text x="222.113px" y="695.294px" style="font-family:'Futura-Medium', 'Futura', sans-serif;font-weight:500;font-size:144px;">C<tspan x="322.588px 366.839px 411.09px 499.591px " y="695.294px 695.294px 695.294px 695.294px ">. 7&quot;</tspan></text><text x="394.988px" y="1709.11px" style="font-family:'Bravura';font-size:288px;">𝆏</text><text x="2543.19px" y="1746.96px" style="font-family:'Bravura';font-size:288px;">𝆑</text><text x="3621.79px" y="1438.91px" style="font-family:'Bravura';font-size:288px;">𝆏</text><text x="538.728px" y="1765.2px" style="font-family:'Bravura';font-size:288px;">𝆒<tspan x="1352.49px 1680.87px " y="1765.2px 1765.2px "> 𝆓</tspan></text></g></g></svg>